<?xml version="1.0" encoding="utf-8"?>
<!DOCTYPE svg PUBLIC "-//W3C//DTD SVG 1.1//EN" "http://www.w3.org/Graphics/SVG/1.1/DTD/svg11.dtd">
<svg version="1.1" id="Layer_1" xmlns="http://www.w3.org/2000/svg" xmlns:xlink="http://www.w3.org/1999/xlink" x="0px" y="0px"
width="1160px" height="1160px" viewBox="0 0 1160 1160" enable-background="new 0 0 1160 1160" xml:space="preserve">
<rect x="0" y="0" width="1160" height="1160" fill="rgb(255,255,255)" /><g transform="translate(80,80)"><g transform="translate(400,0) scale(0.4,0.4)"><g transform="" style="fill: rgb(96, 187, 69);">
<polygon points="100,100 0,50 0,50 100,0 "/>
</g></g><g transform="translate(440,0) scale(0.4,0.4)"><g transform="" style="fill: rgb(96, 187, 69);">
<g>
	<path d="M100,34.375c0-9.505-3.354-17.611-10.059-24.316S75.131,0,65.625,0H0v100h100V34.375z"/>
</g>
</g></g><g transform="translate(520,0) scale(0.4,0.4)"><g transform="" style="fill: rgb(96, 187, 69);">
<polygon points="99.999,49.999 99.998,49.999 49.999,0 0,49.999 -0.001,49.999 -0.001,50 0,50 49.999,99.999 99.998,50 99.999,50 
	99.998,50 "/>
</g></g><g transform="translate(640,0) scale(0.4,0.4)"><g transform="" style="fill: rgb(96, 187, 69);">
<polygon points="100,100 50,0 50,0 0,100 "/>
</g></g><g transform="translate(360,40) scale(0.4,0.4)"><g transform="" style="fill: rgb(96, 187, 69);">
<polygon points="100,100 50,0 50,0 0,100 "/>
</g></g><g transform="translate(440,40) scale(0.4,0.4)"><g transform="" style="fill: rgb(96, 187, 69);">
<polygon points="0,-0.001 50,99.999 50,99.999 100,-0.001 "/>
</g></g><g transform="translate(560,40) scale(0.4,0.4)"><g transform="" style="fill: rgb(96, 187, 69);">
<g>
	<path d="M100,34.375V0H34.375C24.87,0,16.764,3.353,10.059,10.059S0,24.87,0,34.375V100h100V34.375z"/>
</g>
</g></g><g transform="translate(600,40) scale(0.4,0.4)"><g transform="" style="fill: rgb(96, 187, 69);">
<rect width="100" height="100"/>
</g></g><g transform="translate(640,40) scale(0.4,0.4)"><g transform="" style="fill: rgb(96, 187, 69);">
<rect width="100" height="100"/>
</g></g><g transform="translate(320,80) scale(0.4,0.4)"><g transform="" style="fill: rgb(96, 187, 69);">
<g>
	<path d="M100,34.375V0H34.375C24.87,0,16.764,3.353,10.059,10.059S0,24.87,0,34.375V100h100V34.375z"/>
</g>
</g></g><g transform="translate(360,80) scale(0.4,0.4)"><g transform="" style="fill: rgb(96, 187, 69);">
<rect width="100" height="100"/>
</g></g><g transform="translate(400,80) scale(0.4,0.4)"><g transform="" style="fill: rgb(96, 187, 69);">
<g>
	<path d="M100,34.375c0-9.505-3.354-17.611-10.059-24.316S75.131,0,65.625,0H0v100h100V34.375z"/>
</g>
</g></g><g transform="translate(560,80) scale(0.4,0.4)"><g transform="" style="fill: rgb(96, 187, 69);">
<polygon points="0,-0.001 50,99.999 50,99.999 100,-0.001 "/>
</g></g><g transform="translate(640,80) scale(0.4,0.4)"><g transform="" style="fill: rgb(96, 187, 69);">
<polygon points="0,-0.001 50,99.999 50,99.999 100,-0.001 "/>
</g></g><g transform="translate(320,120) scale(0.4,0.4)"><g transform="" style="fill: rgb(96, 187, 69);">
<rect width="100" height="100"/>
</g></g><g transform="translate(360,120) scale(0.4,0.4)"><g transform="" style="fill: rgb(96, 187, 69);">
<rect width="100" height="100"/>
</g></g><g transform="translate(400,120) scale(0.4,0.4)"><g transform="" style="fill: rgb(96, 187, 69);">
<g>
	<path d="M100,0H0v100h65.625c9.506,0,17.611-3.354,24.316-10.059S100,75.131,100,65.625V0z"/>
</g>
</g></g><g transform="translate(520,120) scale(0.4,0.4)"><g transform="" style="fill: rgb(96, 187, 69);">
<polygon points="100,100 50,0 50,0 0,100 "/>
</g></g><g transform="translate(320,160) scale(0.4,0.4)"><g transform="" style="fill: rgb(96, 187, 69);">
<rect width="100" height="100"/>
</g></g><g transform="translate(440,160) scale(0.4,0.4)"><g transform="" style="fill: rgb(96, 187, 69);">
<polygon points="100,100 50,0 50,0 0,100 "/>
</g></g><g transform="translate(520,160) scale(0.4,0.4)"><g transform="" style="fill: rgb(96, 187, 69);">
<rect width="100" height="100"/>
</g></g><g transform="translate(640,160) scale(0.4,0.4)"><g transform="" style="fill: rgb(96, 187, 69);">
<polygon points="100,100 50,0 50,0 0,100 "/>
</g></g><g transform="translate(320,200) scale(0.4,0.4)"><g transform="" style="fill: rgb(96, 187, 69);">
<rect width="100" height="100"/>
</g></g><g transform="translate(400,200) scale(0.4,0.4)"><g transform="" style="fill: rgb(96, 187, 69);">
<g>
	<path d="M100,34.375V0H34.375C24.87,0,16.764,3.353,10.059,10.059S0,24.87,0,34.375V100h100V34.375z"/>
</g>
</g></g><g transform="translate(440,200) scale(0.4,0.4)"><g transform="" style="fill: rgb(96, 187, 69);">
<rect width="100" height="100"/>
</g></g><g transform="translate(480,200) scale(0.4,0.4)"><g transform="" style="fill: rgb(96, 187, 69);">
<rect width="100" height="100"/>
</g></g><g transform="translate(520,200) scale(0.4,0.4)"><g transform="" style="fill: rgb(96, 187, 69);">
<rect width="100" height="100"/>
</g></g><g transform="translate(560,200) scale(0.4,0.4)"><g transform="" style="fill: rgb(96, 187, 69);">
<rect width="100" height="100"/>
</g></g><g transform="translate(600,200) scale(0.4,0.4)"><g transform="" style="fill: rgb(96, 187, 69);">
<rect width="100" height="100"/>
</g></g><g transform="translate(640,200) scale(0.4,0.4)"><g transform="" style="fill: rgb(96, 187, 69);">
<rect width="100" height="100"/>
</g></g><g transform="translate(320,240) scale(0.4,0.4)"><g transform="" style="fill: rgb(96, 187, 69);">
<rect width="100" height="100"/>
</g></g><g transform="translate(400,240) scale(0.4,0.4)"><g transform="" style="fill: rgb(96, 187, 69);">
<polygon points="0,-0.001 50,99.999 50,99.999 100,-0.001 "/>
</g></g><g transform="translate(480,240) scale(0.4,0.4)"><g transform="" style="fill: rgb(96, 187, 69);">
<polygon points="0,-0.001 50,99.999 50,99.999 100,-0.001 "/>
</g></g><g transform="translate(560,240) scale(0.4,0.4)"><g transform="" style="fill: rgb(96, 187, 69);">
<rect width="100" height="100"/>
</g></g><g transform="translate(640,240) scale(0.4,0.4)"><g transform="" style="fill: rgb(96, 187, 69);">
<polygon points="0,-0.001 50,99.999 50,99.999 100,-0.001 "/>
</g></g><g transform="translate(320,280) scale(0.4,0.4)"><g transform="" style="fill: rgb(96, 187, 69);">
<polygon points="0,-0.001 50,99.999 50,99.999 100,-0.001 "/>
</g></g><g transform="translate(440,280) scale(0.4,0.4)"><g transform="" style="fill: rgb(96, 187, 69);">
<polygon points="100,100 50,0 50,0 0,100 "/>
</g></g><g transform="translate(560,280) scale(0.4,0.4)"><g transform="" style="fill: rgb(96, 187, 69);">
<polygon points="0,-0.001 50,99.999 50,99.999 100,-0.001 "/>
</g></g><g transform="translate(0,320) scale(0.4,0.4)"><g transform="" style="fill: rgb(96, 187, 69);">
<polygon points="99.999,49.999 99.998,49.999 49.999,0 0,49.999 -0.001,49.999 -0.001,50 0,50 49.999,99.999 99.998,50 99.999,50 
	99.998,50 "/>
</g></g><g transform="translate(80,320) scale(0.4,0.4)"><g transform="" style="fill: rgb(96, 187, 69);">
<polygon points="100,100 0,50 0,50 100,0 "/>
</g></g><g transform="translate(120,320) scale(0.4,0.4)"><g transform="" style="fill: rgb(96, 187, 69);">
<rect width="100" height="100"/>
</g></g><g transform="translate(160,320) scale(0.4,0.4)"><g transform="" style="fill: rgb(96, 187, 69);">
<rect width="100" height="100"/>
</g></g><g transform="translate(200,320) scale(0.4,0.4)"><g transform="" style="fill: rgb(96, 187, 69);">
<rect width="100" height="100"/>
</g></g><g transform="translate(240,320) scale(0.4,0.4)"><g transform="" style="fill: rgb(96, 187, 69);">
<polygon points="0,100 100,50 100,50 0,0 "/>
</g></g><g transform="translate(360,320) scale(0.4,0.4)"><g transform="" style="fill: rgb(96, 187, 69);">
<polygon points="100,100 0,50 0,50 100,0 "/>
</g></g><g transform="translate(400,320) scale(0.4,0.4)"><g transform="" style="fill: rgb(96, 187, 69);">
<rect width="100" height="100"/>
</g></g><g transform="translate(440,320) scale(0.4,0.4)"><g transform="" style="fill: rgb(96, 187, 69);">
<rect width="100" height="100"/>
</g></g><g transform="translate(480,320) scale(0.4,0.4)"><g transform="" style="fill: rgb(96, 187, 69);">
<polygon points="0,100 100,50 100,50 0,0 "/>
</g></g><g transform="translate(600,320) scale(0.4,0.4)"><g transform="" style="fill: rgb(96, 187, 69);">
<polygon points="99.999,49.999 99.998,49.999 49.999,0 0,49.999 -0.001,49.999 -0.001,50 0,50 49.999,99.999 99.998,50 99.999,50 
	99.998,50 "/>
</g></g><g transform="translate(720,320) scale(0.4,0.4)"><g transform="" style="fill: rgb(96, 187, 69);">
<polygon points="100,100 0,50 0,50 100,0 "/>
</g></g><g transform="translate(760,320) scale(0.4,0.4)"><g transform="" style="fill: rgb(96, 187, 69);">
<rect width="100" height="100"/>
</g></g><g transform="translate(800,320) scale(0.4,0.4)"><g transform="" style="fill: rgb(96, 187, 69);">
<rect width="100" height="100"/>
</g></g><g transform="translate(840,320) scale(0.4,0.4)"><g transform="" style="fill: rgb(96, 187, 69);">
<rect width="100" height="100"/>
</g></g><g transform="translate(880,320) scale(0.4,0.4)"><g transform="" style="fill: rgb(96, 187, 69);">
<polygon points="0,100 100,50 100,50 0,0 "/>
</g></g><g transform="translate(40,360) scale(0.4,0.4)"><g transform="" style="fill: rgb(96, 187, 69);">
<polygon points="99.999,49.999 99.998,49.999 49.999,0 0,49.999 -0.001,49.999 -0.001,50 0,50 49.999,99.999 99.998,50 99.999,50 
	99.998,50 "/>
</g></g><g transform="translate(320,360) scale(0.4,0.4)"><g transform="" style="fill: rgb(96, 187, 69);">
<polygon points="99.999,49.999 99.998,49.999 49.999,0 0,49.999 -0.001,49.999 -0.001,50 0,50 49.999,99.999 99.998,50 99.999,50 
	99.998,50 "/>
</g></g><g transform="translate(440,360) scale(0.4,0.4)"><g transform="" style="fill: rgb(96, 187, 69);">
<polygon points="0,-0.001 50,99.999 50,99.999 100,-0.001 "/>
</g></g><g transform="translate(520,360) scale(0.4,0.4)"><g transform="" style="fill: rgb(96, 187, 69);">
<polygon points="100,100 50,0 50,0 0,100 "/>
</g></g><g transform="translate(640,360) scale(0.4,0.4)"><g transform="" style="fill: rgb(96, 187, 69);">
<polygon points="99.999,49.999 99.998,49.999 49.999,0 0,49.999 -0.001,49.999 -0.001,50 0,50 49.999,99.999 99.998,50 99.999,50 
	99.998,50 "/>
</g></g><g transform="translate(760,360) scale(0.4,0.4)"><g transform="" style="fill: rgb(96, 187, 69);">
<rect width="100" height="100"/>
</g></g><g transform="translate(920,360) scale(0.4,0.4)"><g transform="" style="fill: rgb(96, 187, 69);">
<polygon points="100,100 50,0 50,0 0,100 "/>
</g></g><g transform="translate(80,400) scale(0.4,0.4)"><g transform="" style="fill: rgb(96, 187, 69);">
<polygon points="100,100 0,50 0,50 100,0 "/>
</g></g><g transform="translate(120,400) scale(0.4,0.4)"><g transform="" style="fill: rgb(96, 187, 69);">
<g>
	<path d="M100,34.375c0-9.505-3.354-17.611-10.059-24.316S75.131,0,65.625,0H0v100h100V34.375z"/>
</g>
</g></g><g transform="translate(200,400) scale(0.4,0.4)"><g transform="" style="fill: rgb(96, 187, 69);">
<g>
	<path d="M100,34.375V0H34.375C24.87,0,16.764,3.353,10.059,10.059S0,24.87,0,34.375V100h100V34.375z"/>
</g>
</g></g><g transform="translate(240,400) scale(0.4,0.4)"><g transform="" style="fill: rgb(96, 187, 69);">
<polygon points="0,100 100,50 100,50 0,0 "/>
</g></g><g transform="translate(360,400) scale(0.4,0.4)"><g transform="" style="fill: rgb(96, 187, 69);">
<g>
	<path d="M100,34.375V0H34.375C24.87,0,16.764,3.353,10.059,10.059S0,24.87,0,34.375V100h100V34.375z"/>
</g>
</g></g><g transform="translate(400,400) scale(0.4,0.4)"><g transform="" style="fill: rgb(96, 187, 69);">
<g>
	<path d="M100,34.375c0-9.505-3.354-17.611-10.059-24.316S75.131,0,65.625,0H0v100h100V34.375z"/>
</g>
</g></g><g transform="translate(520,400) scale(0.4,0.4)"><g transform="" style="fill: rgb(96, 187, 69);">
<rect width="100" height="100"/>
</g></g><g transform="translate(560,400) scale(0.4,0.4)"><g transform="" style="fill: rgb(96, 187, 69);">
<rect width="100" height="100"/>
</g></g><g transform="translate(600,400) scale(0.4,0.4)"><g transform="" style="fill: rgb(96, 187, 69);">
<polygon points="0,100 100,50 100,50 0,0 "/>
</g></g><g transform="translate(760,400) scale(0.4,0.4)"><g transform="" style="fill: rgb(96, 187, 69);">
<rect width="100" height="100"/>
</g></g><g transform="translate(800,400) scale(0.4,0.4)"><g transform="" style="fill: rgb(96, 187, 69);">
<rect width="100" height="100"/>
</g></g><g transform="translate(840,400) scale(0.4,0.4)"><g transform="" style="fill: rgb(96, 187, 69);">
<polygon points="0,100 100,50 100,50 0,0 "/>
</g></g><g transform="translate(920,400) scale(0.4,0.4)"><g transform="" style="fill: rgb(96, 187, 69);">
<g>
	<path d="M100,0H0v65.625c0,9.506,3.353,17.611,10.059,24.316S24.87,100,34.375,100H100V0z"/>
</g>
</g></g><g transform="translate(960,400) scale(0.4,0.4)"><g transform="" style="fill: rgb(96, 187, 69);">
<g>
	<path d="M100,34.375c0-9.505-3.354-17.611-10.059-24.316S75.131,0,65.625,0H0v100h100V34.375z"/>
</g>
</g></g><g transform="translate(0,440) scale(0.4,0.4)"><g transform="" style="fill: rgb(96, 187, 69);">
<g>
	<path d="M100,34.375V0H34.375C24.87,0,16.764,3.353,10.059,10.059S0,24.87,0,34.375V100h100V34.375z"/>
</g>
</g></g><g transform="translate(40,440) scale(0.4,0.4)"><g transform="" style="fill: rgb(96, 187, 69);">
<g>
	<path d="M100,34.375c0-9.505-3.354-17.611-10.059-24.316S75.131,0,65.625,0H0v100h100V34.375z"/>
</g>
</g></g><g transform="translate(120,440) scale(0.4,0.4)"><g transform="" style="fill: rgb(96, 187, 69);">
<polygon points="0,-0.001 50,99.999 50,99.999 100,-0.001 "/>
</g></g><g transform="translate(200,440) scale(0.4,0.4)"><g transform="" style="fill: rgb(96, 187, 69);">
<polygon points="0,-0.001 50,99.999 50,99.999 100,-0.001 "/>
</g></g><g transform="translate(280,440) scale(0.4,0.4)"><g transform="" style="fill: rgb(96, 187, 69);">
<polygon points="99.999,49.999 99.998,49.999 49.999,0 0,49.999 -0.001,49.999 -0.001,50 0,50 49.999,99.999 99.998,50 99.999,50 
	99.998,50 "/>
</g></g><g transform="translate(360,440) scale(0.4,0.4)"><g transform="" style="fill: rgb(96, 187, 69);">
<g>
	<path d="M100,0H0v65.625c0,9.506,3.353,17.611,10.059,24.316S24.87,100,34.375,100H100V0z"/>
</g>
</g></g><g transform="translate(400,440) scale(0.4,0.4)"><g transform="" style="fill: rgb(96, 187, 69);">
<g>
	<path d="M100,0H0v100h65.625c9.506,0,17.611-3.354,24.316-10.059S100,75.131,100,65.625V0z"/>
</g>
</g></g><g transform="translate(520,440) scale(0.4,0.4)"><g transform="" style="fill: rgb(96, 187, 69);">
<polygon points="0,-0.001 50,99.999 50,99.999 100,-0.001 "/>
</g></g><g transform="translate(640,440) scale(0.4,0.4)"><g transform="" style="fill: rgb(96, 187, 69);">
<polygon points="100,100 0,50 0,50 100,0 "/>
</g></g><g transform="translate(680,440) scale(0.4,0.4)"><g transform="" style="fill: rgb(96, 187, 69);">
<rect width="100" height="100"/>
</g></g><g transform="translate(720,440) scale(0.4,0.4)"><g transform="" style="fill: rgb(96, 187, 69);">
<rect width="100" height="100"/>
</g></g><g transform="translate(760,440) scale(0.4,0.4)"><g transform="" style="fill: rgb(96, 187, 69);">
<g>
	<path d="M100,0H0v100h65.625c9.506,0,17.611-3.354,24.316-10.059S100,75.131,100,65.625V0z"/>
</g>
</g></g><g transform="translate(960,440) scale(0.4,0.4)"><g transform="" style="fill: rgb(96, 187, 69);">
<rect width="100" height="100"/>
</g></g><g transform="translate(0,480) scale(0.4,0.4)"><g transform="" style="fill: rgb(96, 187, 69);">
<rect width="100" height="100"/>
</g></g><g transform="translate(40,480) scale(0.4,0.4)"><g transform="" style="fill: rgb(96, 187, 69);">
<rect width="100" height="100"/>
</g></g><g transform="translate(80,480) scale(0.4,0.4)"><g transform="" style="fill: rgb(96, 187, 69);">
<polygon points="0,100 100,50 100,50 0,0 "/>
</g></g><g transform="translate(160,480) scale(0.4,0.4)"><g transform="" style="fill: rgb(96, 187, 69);">
<polygon points="99.999,49.999 99.998,49.999 49.999,0 0,49.999 -0.001,49.999 -0.001,50 0,50 49.999,99.999 99.998,50 99.999,50 
	99.998,50 "/>
</g></g><g transform="translate(240,480) scale(0.4,0.4)"><g transform="" style="fill: rgb(96, 187, 69);">
<polygon points="99.999,49.999 99.998,49.999 49.999,0 0,49.999 -0.001,49.999 -0.001,50 0,50 49.999,99.999 99.998,50 99.999,50 
	99.998,50 "/>
</g></g><g transform="translate(320,480) scale(0.4,0.4)"><g transform="" style="fill: rgb(96, 187, 69);">
<polygon points="99.999,49.999 99.998,49.999 49.999,0 0,49.999 -0.001,49.999 -0.001,50 0,50 49.999,99.999 99.998,50 99.999,50 
	99.998,50 "/>
</g></g><g transform="translate(480,480) scale(0.4,0.4)"><g transform="" style="fill: rgb(96, 187, 69);">
<polygon points="99.999,49.999 99.998,49.999 49.999,0 0,49.999 -0.001,49.999 -0.001,50 0,50 49.999,99.999 99.998,50 99.999,50 
	99.998,50 "/>
</g></g><g transform="translate(560,480) scale(0.4,0.4)"><g transform="" style="fill: rgb(96, 187, 69);">
<polygon points="99.999,49.999 99.998,49.999 49.999,0 0,49.999 -0.001,49.999 -0.001,50 0,50 49.999,99.999 99.998,50 99.999,50 
	99.998,50 "/>
</g></g><g transform="translate(680,480) scale(0.4,0.4)"><g transform="" style="fill: rgb(96, 187, 69);">
<rect width="100" height="100"/>
</g></g><g transform="translate(720,480) scale(0.4,0.4)"><g transform="" style="fill: rgb(96, 187, 69);">
<g>
	<path d="M100,0H0v100h65.625c9.506,0,17.611-3.354,24.316-10.059S100,75.131,100,65.625V0z"/>
</g>
</g></g><g transform="translate(800,480) scale(0.4,0.4)"><g transform="" style="fill: rgb(96, 187, 69);">
<polygon points="99.999,49.999 99.998,49.999 49.999,0 0,49.999 -0.001,49.999 -0.001,50 0,50 49.999,99.999 99.998,50 99.999,50 
	99.998,50 "/>
</g></g><g transform="translate(880,480) scale(0.4,0.4)"><g transform="" style="fill: rgb(96, 187, 69);">
<polygon points="100,100 0,50 0,50 100,0 "/>
</g></g><g transform="translate(920,480) scale(0.4,0.4)"><g transform="" style="fill: rgb(96, 187, 69);">
<rect width="100" height="100"/>
</g></g><g transform="translate(960,480) scale(0.4,0.4)"><g transform="" style="fill: rgb(96, 187, 69);">
<g>
	<path d="M100,0H0v100h65.625c9.506,0,17.611-3.354,24.316-10.059S100,75.131,100,65.625V0z"/>
</g>
</g></g><g transform="translate(0,520) scale(0.4,0.4)"><g transform="" style="fill: rgb(96, 187, 69);">
<rect width="100" height="100"/>
</g></g><g transform="translate(40,520) scale(0.4,0.4)"><g transform="" style="fill: rgb(96, 187, 69);">
<g>
	<path d="M100,0H0v100h65.625c9.506,0,17.611-3.354,24.316-10.059S100,75.131,100,65.625V0z"/>
</g>
</g></g><g transform="translate(120,520) scale(0.4,0.4)"><g transform="" style="fill: rgb(96, 187, 69);">
<polygon points="100,100 50,0 50,0 0,100 "/>
</g></g><g transform="translate(280,520) scale(0.4,0.4)"><g transform="" style="fill: rgb(96, 187, 69);">
<polygon points="100,100 50,0 50,0 0,100 "/>
</g></g><g transform="translate(360,520) scale(0.4,0.4)"><g transform="" style="fill: rgb(96, 187, 69);">
<polygon points="100,100 50,0 50,0 0,100 "/>
</g></g><g transform="translate(680,520) scale(0.4,0.4)"><g transform="" style="fill: rgb(96, 187, 69);">
<rect width="100" height="100"/>
</g></g><g transform="translate(760,520) scale(0.4,0.4)"><g transform="" style="fill: rgb(96, 187, 69);">
<polygon points="100,100 50,0 50,0 0,100 "/>
</g></g><g transform="translate(840,520) scale(0.4,0.4)"><g transform="" style="fill: rgb(96, 187, 69);">
<polygon points="100,100 50,0 50,0 0,100 "/>
</g></g><g transform="translate(920,520) scale(0.4,0.4)"><g transform="" style="fill: rgb(96, 187, 69);">
<rect width="100" height="100"/>
</g></g><g transform="translate(0,560) scale(0.4,0.4)"><g transform="" style="fill: rgb(96, 187, 69);">
<rect width="100" height="100"/>
</g></g><g transform="translate(120,560) scale(0.4,0.4)"><g transform="" style="fill: rgb(96, 187, 69);">
<polygon points="0,-0.001 50,99.999 50,99.999 100,-0.001 "/>
</g></g><g transform="translate(240,560) scale(0.4,0.4)"><g transform="" style="fill: rgb(96, 187, 69);">
<polygon points="100,100 0,50 0,50 100,0 "/>
</g></g><g transform="translate(280,560) scale(0.4,0.4)"><g transform="" style="fill: rgb(96, 187, 69);">
<g>
	<path d="M100,0H0v100h65.625c9.506,0,17.611-3.354,24.316-10.059S100,75.131,100,65.625V0z"/>
</g>
</g></g><g transform="translate(360,560) scale(0.4,0.4)"><g transform="" style="fill: rgb(96, 187, 69);">
<rect width="100" height="100"/>
</g></g><g transform="translate(400,560) scale(0.4,0.4)"><g transform="" style="fill: rgb(96, 187, 69);">
<rect width="100" height="100"/>
</g></g><g transform="translate(440,560) scale(0.4,0.4)"><g transform="" style="fill: rgb(96, 187, 69);">
<rect width="100" height="100"/>
</g></g><g transform="translate(480,560) scale(0.4,0.4)"><g transform="" style="fill: rgb(96, 187, 69);">
<polygon points="0,100 100,50 100,50 0,0 "/>
</g></g><g transform="translate(600,560) scale(0.4,0.4)"><g transform="" style="fill: rgb(96, 187, 69);">
<polygon points="99.999,49.999 99.998,49.999 49.999,0 0,49.999 -0.001,49.999 -0.001,50 0,50 49.999,99.999 99.998,50 99.999,50 
	99.998,50 "/>
</g></g><g transform="translate(680,560) scale(0.4,0.4)"><g transform="" style="fill: rgb(96, 187, 69);">
<g>
	<path d="M100,0H0v65.625c0,9.506,3.353,17.611,10.059,24.316S24.87,100,34.375,100H100V0z"/>
</g>
</g></g><g transform="translate(720,560) scale(0.4,0.4)"><g transform="" style="fill: rgb(96, 187, 69);">
<rect width="100" height="100"/>
</g></g><g transform="translate(760,560) scale(0.4,0.4)"><g transform="" style="fill: rgb(96, 187, 69);">
<rect width="100" height="100"/>
</g></g><g transform="translate(800,560) scale(0.4,0.4)"><g transform="" style="fill: rgb(96, 187, 69);">
<rect width="100" height="100"/>
</g></g><g transform="translate(840,560) scale(0.4,0.4)"><g transform="" style="fill: rgb(96, 187, 69);">
<g>
	<path d="M100,0H0v100h65.625c9.506,0,17.611-3.354,24.316-10.059S100,75.131,100,65.625V0z"/>
</g>
</g></g><g transform="translate(920,560) scale(0.4,0.4)"><g transform="" style="fill: rgb(96, 187, 69);">
<g>
	<path d="M100,0H0v65.625c0,9.506,3.353,17.611,10.059,24.316S24.87,100,34.375,100H100V0z"/>
</g>
</g></g><g transform="translate(960,560) scale(0.4,0.4)"><g transform="" style="fill: rgb(96, 187, 69);">
<g>
	<path d="M100,34.375c0-9.505-3.354-17.611-10.059-24.316S75.131,0,65.625,0H0v100h100V34.375z"/>
</g>
</g></g><g transform="translate(0,600) scale(0.4,0.4)"><g transform="" style="fill: rgb(96, 187, 69);">
<rect width="100" height="100"/>
</g></g><g transform="translate(160,600) scale(0.4,0.4)"><g transform="" style="fill: rgb(96, 187, 69);">
<polygon points="99.999,49.999 99.998,49.999 49.999,0 0,49.999 -0.001,49.999 -0.001,50 0,50 49.999,99.999 99.998,50 99.999,50 
	99.998,50 "/>
</g></g><g transform="translate(320,600) scale(0.4,0.4)"><g transform="" style="fill: rgb(96, 187, 69);">
<g>
	<path d="M100,34.375V0H34.375C24.87,0,16.764,3.353,10.059,10.059S0,24.87,0,34.375V100h100V34.375z"/>
</g>
</g></g><g transform="translate(360,600) scale(0.4,0.4)"><g transform="" style="fill: rgb(96, 187, 69);">
<rect width="100" height="100"/>
</g></g><g transform="translate(440,600) scale(0.4,0.4)"><g transform="" style="fill: rgb(96, 187, 69);">
<rect width="100" height="100"/>
</g></g><g transform="translate(560,600) scale(0.4,0.4)"><g transform="" style="fill: rgb(96, 187, 69);">
<polygon points="99.999,49.999 99.998,49.999 49.999,0 0,49.999 -0.001,49.999 -0.001,50 0,50 49.999,99.999 99.998,50 99.999,50 
	99.998,50 "/>
</g></g><g transform="translate(720,600) scale(0.4,0.4)"><g transform="" style="fill: rgb(96, 187, 69);">
<rect width="100" height="100"/>
</g></g><g transform="translate(760,600) scale(0.4,0.4)"><g transform="" style="fill: rgb(96, 187, 69);">
<rect width="100" height="100"/>
</g></g><g transform="translate(800,600) scale(0.4,0.4)"><g transform="" style="fill: rgb(96, 187, 69);">
<rect width="100" height="100"/>
</g></g><g transform="translate(960,600) scale(0.4,0.4)"><g transform="" style="fill: rgb(96, 187, 69);">
<polygon points="0,-0.001 50,99.999 50,99.999 100,-0.001 "/>
</g></g><g transform="translate(0,640) scale(0.4,0.4)"><g transform="" style="fill: rgb(96, 187, 69);">
<polygon points="0,-0.001 50,99.999 50,99.999 100,-0.001 "/>
</g></g><g transform="translate(80,640) scale(0.4,0.4)"><g transform="" style="fill: rgb(96, 187, 69);">
<polygon points="100,100 0,50 0,50 100,0 "/>
</g></g><g transform="translate(120,640) scale(0.4,0.4)"><g transform="" style="fill: rgb(96, 187, 69);">
<polygon points="0,100 100,50 100,50 0,0 "/>
</g></g><g transform="translate(200,640) scale(0.4,0.4)"><g transform="" style="fill: rgb(96, 187, 69);">
<polygon points="100,100 0,50 0,50 100,0 "/>
</g></g><g transform="translate(240,640) scale(0.4,0.4)"><g transform="" style="fill: rgb(96, 187, 69);">
<polygon points="0,100 100,50 100,50 0,0 "/>
</g></g><g transform="translate(320,640) scale(0.4,0.4)"><g transform="" style="fill: rgb(96, 187, 69);">
<rect width="100" height="100"/>
</g></g><g transform="translate(360,640) scale(0.4,0.4)"><g transform="" style="fill: rgb(96, 187, 69);">
<rect width="100" height="100"/>
</g></g><g transform="translate(400,640) scale(0.4,0.4)"><g transform="" style="fill: rgb(96, 187, 69);">
<rect width="100" height="100"/>
</g></g><g transform="translate(440,640) scale(0.4,0.4)"><g transform="" style="fill: rgb(96, 187, 69);">
<g>
	<path d="M100,0H0v100h65.625c9.506,0,17.611-3.354,24.316-10.059S100,75.131,100,65.625V0z"/>
</g>
</g></g><g transform="translate(600,640) scale(0.4,0.4)"><g transform="" style="fill: rgb(96, 187, 69);">
<g>
	<path d="M100,34.375V0H34.375C24.87,0,16.764,3.353,10.059,10.059S0,24.87,0,34.375V100h100V34.375z"/>
</g>
</g></g><g transform="translate(640,640) scale(0.4,0.4)"><g transform="" style="fill: rgb(96, 187, 69);">
<rect width="100" height="100"/>
</g></g><g transform="translate(680,640) scale(0.4,0.4)"><g transform="" style="fill: rgb(96, 187, 69);">
<rect width="100" height="100"/>
</g></g><g transform="translate(720,640) scale(0.4,0.4)"><g transform="" style="fill: rgb(96, 187, 69);">
<rect width="100" height="100"/>
</g></g><g transform="translate(760,640) scale(0.4,0.4)"><g transform="" style="fill: rgb(96, 187, 69);">
<rect width="100" height="100"/>
</g></g><g transform="translate(800,640) scale(0.4,0.4)"><g transform="" style="fill: rgb(96, 187, 69);">
<rect width="100" height="100"/>
</g></g><g transform="translate(880,640) scale(0.4,0.4)"><g transform="" style="fill: rgb(96, 187, 69);">
<polygon points="99.999,49.999 99.998,49.999 49.999,0 0,49.999 -0.001,49.999 -0.001,50 0,50 49.999,99.999 99.998,50 99.999,50 
	99.998,50 "/>
</g></g><g transform="translate(320,680) scale(0.4,0.4)"><g transform="" style="fill: rgb(96, 187, 69);">
<polygon points="0,-0.001 50,99.999 50,99.999 100,-0.001 "/>
</g></g><g transform="translate(400,680) scale(0.4,0.4)"><g transform="" style="fill: rgb(96, 187, 69);">
<polygon points="0,-0.001 50,99.999 50,99.999 100,-0.001 "/>
</g></g><g transform="translate(480,680) scale(0.4,0.4)"><g transform="" style="fill: rgb(96, 187, 69);">
<polygon points="100,100 0,50 0,50 100,0 "/>
</g></g><g transform="translate(520,680) scale(0.4,0.4)"><g transform="" style="fill: rgb(96, 187, 69);">
<rect width="100" height="100"/>
</g></g><g transform="translate(560,680) scale(0.4,0.4)"><g transform="" style="fill: rgb(96, 187, 69);">
<rect width="100" height="100"/>
</g></g><g transform="translate(600,680) scale(0.4,0.4)"><g transform="" style="fill: rgb(96, 187, 69);">
<rect width="100" height="100"/>
</g></g><g transform="translate(640,680) scale(0.4,0.4)"><g transform="" style="fill: rgb(96, 187, 69);">
<rect width="100" height="100"/>
</g></g><g transform="translate(800,680) scale(0.4,0.4)"><g transform="" style="fill: rgb(96, 187, 69);">
<rect width="100" height="100"/>
</g></g><g transform="translate(840,680) scale(0.4,0.4)"><g transform="" style="fill: rgb(96, 187, 69);">
<polygon points="0,100 100,50 100,50 0,0 "/>
</g></g><g transform="translate(360,720) scale(0.4,0.4)"><g transform="" style="fill: rgb(96, 187, 69);">
<polygon points="100,100 50,0 50,0 0,100 "/>
</g></g><g transform="translate(520,720) scale(0.4,0.4)"><g transform="" style="fill: rgb(96, 187, 69);">
<rect width="100" height="100"/>
</g></g><g transform="translate(560,720) scale(0.4,0.4)"><g transform="" style="fill: rgb(96, 187, 69);">
<g>
	<path d="M100,0H0v100h65.625c9.506,0,17.611-3.354,24.316-10.059S100,75.131,100,65.625V0z"/>
</g>
</g></g><g transform="translate(640,720) scale(0.4,0.4)"><g transform="" style="fill: rgb(96, 187, 69);">
<rect width="100" height="100"/>
</g></g><g transform="translate(720,720) scale(0.4,0.4)"><g transform="" style="fill: rgb(96, 187, 69);">
<polygon points="99.999,49.999 99.998,49.999 49.999,0 0,49.999 -0.001,49.999 -0.001,50 0,50 49.999,99.999 99.998,50 99.999,50 
	99.998,50 "/>
</g></g><g transform="translate(800,720) scale(0.4,0.4)"><g transform="" style="fill: rgb(96, 187, 69);">
<rect width="100" height="100"/>
</g></g><g transform="translate(880,720) scale(0.4,0.4)"><g transform="" style="fill: rgb(96, 187, 69);">
<polygon points="100,100 0,50 0,50 100,0 "/>
</g></g><g transform="translate(920,720) scale(0.4,0.4)"><g transform="" style="fill: rgb(96, 187, 69);">
<rect width="100" height="100"/>
</g></g><g transform="translate(960,720) scale(0.4,0.4)"><g transform="" style="fill: rgb(96, 187, 69);">
<polygon points="0,100 100,50 100,50 0,0 "/>
</g></g><g transform="translate(320,760) scale(0.4,0.4)"><g transform="" style="fill: rgb(96, 187, 69);">
<g>
	<path d="M100,34.375V0H34.375C24.87,0,16.764,3.353,10.059,10.059S0,24.87,0,34.375V100h100V34.375z"/>
</g>
</g></g><g transform="translate(360,760) scale(0.4,0.4)"><g transform="" style="fill: rgb(96, 187, 69);">
<rect width="100" height="100"/>
</g></g><g transform="translate(480,760) scale(0.4,0.4)"><g transform="" style="fill: rgb(96, 187, 69);">
<g>
	<path d="M100,34.375V0H34.375C24.87,0,16.764,3.353,10.059,10.059S0,24.87,0,34.375V100h100V34.375z"/>
</g>
</g></g><g transform="translate(520,760) scale(0.4,0.4)"><g transform="" style="fill: rgb(96, 187, 69);">
<g>
	<path d="M100,0H0v100h65.625c9.506,0,17.611-3.354,24.316-10.059S100,75.131,100,65.625V0z"/>
</g>
</g></g><g transform="translate(640,760) scale(0.4,0.4)"><g transform="" style="fill: rgb(96, 187, 69);">
<rect width="100" height="100"/>
</g></g><g transform="translate(800,760) scale(0.4,0.4)"><g transform="" style="fill: rgb(96, 187, 69);">
<rect width="100" height="100"/>
</g></g><g transform="translate(840,760) scale(0.4,0.4)"><g transform="" style="fill: rgb(96, 187, 69);">
<polygon points="0,100 100,50 100,50 0,0 "/>
</g></g><g transform="translate(920,760) scale(0.4,0.4)"><g transform="" style="fill: rgb(96, 187, 69);">
<polygon points="0,-0.001 50,99.999 50,99.999 100,-0.001 "/>
</g></g><g transform="translate(320,800) scale(0.4,0.4)"><g transform="" style="fill: rgb(96, 187, 69);">
<rect width="100" height="100"/>
</g></g><g transform="translate(360,800) scale(0.4,0.4)"><g transform="" style="fill: rgb(96, 187, 69);">
<rect width="100" height="100"/>
</g></g><g transform="translate(480,800) scale(0.4,0.4)"><g transform="" style="fill: rgb(96, 187, 69);">
<polygon points="0,-0.001 50,99.999 50,99.999 100,-0.001 "/>
</g></g><g transform="translate(560,800) scale(0.4,0.4)"><g transform="" style="fill: rgb(96, 187, 69);">
<polygon points="100,100 0,50 0,50 100,0 "/>
</g></g><g transform="translate(600,800) scale(0.4,0.4)"><g transform="" style="fill: rgb(96, 187, 69);">
<rect width="100" height="100"/>
</g></g><g transform="translate(640,800) scale(0.4,0.4)"><g transform="" style="fill: rgb(96, 187, 69);">
<rect width="100" height="100"/>
</g></g><g transform="translate(680,800) scale(0.4,0.4)"><g transform="" style="fill: rgb(96, 187, 69);">
<rect width="100" height="100"/>
</g></g><g transform="translate(720,800) scale(0.4,0.4)"><g transform="" style="fill: rgb(96, 187, 69);">
<rect width="100" height="100"/>
</g></g><g transform="translate(760,800) scale(0.4,0.4)"><g transform="" style="fill: rgb(96, 187, 69);">
<rect width="100" height="100"/>
</g></g><g transform="translate(800,800) scale(0.4,0.4)"><g transform="" style="fill: rgb(96, 187, 69);">
<rect width="100" height="100"/>
</g></g><g transform="translate(880,800) scale(0.4,0.4)"><g transform="" style="fill: rgb(96, 187, 69);">
<polygon points="100,100 50,0 50,0 0,100 "/>
</g></g><g transform="translate(960,800) scale(0.4,0.4)"><g transform="" style="fill: rgb(96, 187, 69);">
<polygon points="100,100 50,0 50,0 0,100 "/>
</g></g><g transform="translate(320,840) scale(0.4,0.4)"><g transform="" style="fill: rgb(96, 187, 69);">
<rect width="100" height="100"/>
</g></g><g transform="translate(360,840) scale(0.4,0.4)"><g transform="" style="fill: rgb(96, 187, 69);">
<rect width="100" height="100"/>
</g></g><g transform="translate(400,840) scale(0.4,0.4)"><g transform="" style="fill: rgb(96, 187, 69);">
<g>
	<path d="M100,34.375c0-9.505-3.354-17.611-10.059-24.316S75.131,0,65.625,0H0v100h100V34.375z"/>
</g>
</g></g><g transform="translate(680,840) scale(0.4,0.4)"><g transform="" style="fill: rgb(96, 187, 69);">
<g>
	<path d="M100,0H0v65.625c0,9.506,3.353,17.611,10.059,24.316S24.87,100,34.375,100H100V0z"/>
</g>
</g></g><g transform="translate(720,840) scale(0.4,0.4)"><g transform="" style="fill: rgb(96, 187, 69);">
<g>
	<path d="M100,0H0v100h65.625c9.506,0,17.611-3.354,24.316-10.059S100,75.131,100,65.625V0z"/>
</g>
</g></g><g transform="translate(800,840) scale(0.4,0.4)"><g transform="" style="fill: rgb(96, 187, 69);">
<g>
	<path d="M100,0H0v65.625c0,9.506,3.353,17.611,10.059,24.316S24.87,100,34.375,100H100V0z"/>
</g>
</g></g><g transform="translate(840,840) scale(0.4,0.4)"><g transform="" style="fill: rgb(96, 187, 69);">
<rect width="100" height="100"/>
</g></g><g transform="translate(880,840) scale(0.4,0.4)"><g transform="" style="fill: rgb(96, 187, 69);">
<rect width="100" height="100"/>
</g></g><g transform="translate(920,840) scale(0.4,0.4)"><g transform="" style="fill: rgb(96, 187, 69);">
<rect width="100" height="100"/>
</g></g><g transform="translate(960,840) scale(0.4,0.4)"><g transform="" style="fill: rgb(96, 187, 69);">
<rect width="100" height="100"/>
</g></g><g transform="translate(320,880) scale(0.4,0.4)"><g transform="" style="fill: rgb(96, 187, 69);">
<polygon points="0,-0.001 50,99.999 50,99.999 100,-0.001 "/>
</g></g><g transform="translate(400,880) scale(0.4,0.4)"><g transform="" style="fill: rgb(96, 187, 69);">
<g>
	<path d="M100,0H0v65.625c0,9.506,3.353,17.611,10.059,24.316S24.87,100,34.375,100H100V0z"/>
</g>
</g></g><g transform="translate(440,880) scale(0.4,0.4)"><g transform="" style="fill: rgb(96, 187, 69);">
<rect width="100" height="100"/>
</g></g><g transform="translate(480,880) scale(0.4,0.4)"><g transform="" style="fill: rgb(96, 187, 69);">
<polygon points="0,100 100,50 100,50 0,0 "/>
</g></g><g transform="translate(840,880) scale(0.4,0.4)"><g transform="" style="fill: rgb(96, 187, 69);">
<rect width="100" height="100"/>
</g></g><g transform="translate(880,880) scale(0.4,0.4)"><g transform="" style="fill: rgb(96, 187, 69);">
<g>
	<path d="M100,0H0v100h65.625c9.506,0,17.611-3.354,24.316-10.059S100,75.131,100,65.625V0z"/>
</g>
</g></g><g transform="translate(960,880) scale(0.4,0.4)"><g transform="" style="fill: rgb(96, 187, 69);">
<rect width="100" height="100"/>
</g></g><g transform="translate(360,920) scale(0.4,0.4)"><g transform="" style="fill: rgb(96, 187, 69);">
<polygon points="99.999,49.999 99.998,49.999 49.999,0 0,49.999 -0.001,49.999 -0.001,50 0,50 49.999,99.999 99.998,50 99.999,50 
	99.998,50 "/>
</g></g><g transform="translate(440,920) scale(0.4,0.4)"><g transform="" style="fill: rgb(96, 187, 69);">
<rect width="100" height="100"/>
</g></g><g transform="translate(560,920) scale(0.4,0.4)"><g transform="" style="fill: rgb(96, 187, 69);">
<polygon points="99.999,49.999 99.998,49.999 49.999,0 0,49.999 -0.001,49.999 -0.001,50 0,50 49.999,99.999 99.998,50 99.999,50 
	99.998,50 "/>
</g></g><g transform="translate(640,920) scale(0.4,0.4)"><g transform="" style="fill: rgb(96, 187, 69);">
<polygon points="99.999,49.999 99.998,49.999 49.999,0 0,49.999 -0.001,49.999 -0.001,50 0,50 49.999,99.999 99.998,50 99.999,50 
	99.998,50 "/>
</g></g><g transform="translate(760,920) scale(0.4,0.4)"><g transform="" style="fill: rgb(96, 187, 69);">
<g>
	<path d="M100,34.375V0H34.375C24.87,0,16.764,3.353,10.059,10.059S0,24.87,0,34.375V100h100V34.375z"/>
</g>
</g></g><g transform="translate(800,920) scale(0.4,0.4)"><g transform="" style="fill: rgb(96, 187, 69);">
<rect width="100" height="100"/>
</g></g><g transform="translate(840,920) scale(0.4,0.4)"><g transform="" style="fill: rgb(96, 187, 69);">
<rect width="100" height="100"/>
</g></g><g transform="translate(960,920) scale(0.4,0.4)"><g transform="" style="fill: rgb(96, 187, 69);">
<rect width="100" height="100"/>
</g></g><g transform="translate(320,960) scale(0.4,0.4)"><g transform="" style="fill: rgb(96, 187, 69);">
<polygon points="99.999,49.999 99.998,49.999 49.999,0 0,49.999 -0.001,49.999 -0.001,50 0,50 49.999,99.999 99.998,50 99.999,50 
	99.998,50 "/>
</g></g><g transform="translate(440,960) scale(0.4,0.4)"><g transform="" style="fill: rgb(96, 187, 69);">
<polygon points="0,-0.001 50,99.999 50,99.999 100,-0.001 "/>
</g></g><g transform="translate(720,960) scale(0.4,0.4)"><g transform="" style="fill: rgb(96, 187, 69);">
<polygon points="100,100 0,50 0,50 100,0 "/>
</g></g><g transform="translate(760,960) scale(0.4,0.4)"><g transform="" style="fill: rgb(96, 187, 69);">
<rect width="100" height="100"/>
</g></g><g transform="translate(800,960) scale(0.4,0.4)"><g transform="" style="fill: rgb(96, 187, 69);">
<rect width="100" height="100"/>
</g></g><g transform="translate(840,960) scale(0.4,0.4)"><g transform="" style="fill: rgb(96, 187, 69);">
<rect width="100" height="100"/>
</g></g><g transform="translate(880,960) scale(0.4,0.4)"><g transform="" style="fill: rgb(96, 187, 69);">
<rect width="100" height="100"/>
</g></g><g transform="translate(920,960) scale(0.4,0.4)"><g transform="" style="fill: rgb(96, 187, 69);">
<rect width="100" height="100"/>
</g></g><g transform="translate(960,960) scale(0.4,0.4)"><g transform="" style="fill: rgb(96, 187, 69);">
<g>
	<path d="M100,0H0v100h65.625c9.506,0,17.611-3.354,24.316-10.059S100,75.131,100,65.625V0z"/>
</g>
</g></g><g transform="translate(0,0) scale(2.8, 2.8)"><g transform=" translate(100, 0) scale(-1,1) " style="fill: rgb(96, 187, 69);">
<g>
	<path style="fill:none;" d="M85,66.221V33.75C85,23.411,76.414,15,65.859,15H34.14C23.586,15,15,23.411,15,33.75v51.246
		l50.855-0.016C76.414,84.98,85,76.564,85,66.221z"/>
	<path d="M100,66.221V33.75C100,15.141,84.68,0,65.859,0H34.14C15.32,0,0,15.141,0,33.75V100l65.859-0.02
		C84.68,99.98,100,84.84,100,66.221z M85,66.221c0,10.344-8.586,18.76-19.145,18.76L15,84.996V33.75C15,23.411,23.586,15,34.14,15
		h31.719C76.414,15,85,23.411,85,33.75V66.221z"/>
</g>
</g></g><g transform="translate(720,0) scale(2.8, 2.8)"><g transform="" style="fill: rgb(96, 187, 69);">
<g>
	<path style="fill:none;" d="M85,66.221V33.75C85,23.411,76.414,15,65.859,15H34.14C23.586,15,15,23.411,15,33.75v51.246
		l50.855-0.016C76.414,84.98,85,76.564,85,66.221z"/>
	<path d="M100,66.221V33.75C100,15.141,84.68,0,65.859,0H34.14C15.32,0,0,15.141,0,33.75V100l65.859-0.02
		C84.68,99.98,100,84.84,100,66.221z M85,66.221c0,10.344-8.586,18.76-19.145,18.76L15,84.996V33.75C15,23.411,23.586,15,34.14,15
		h31.719C76.414,15,85,23.411,85,33.75V66.221z"/>
</g>
</g></g><g transform="translate(0,720) scale(2.8, 2.8)"><g transform=" translate(100, 0) scale(-1,1)  translate(0,100) scale(1,-1) " style="fill: rgb(96, 187, 69);">
<g>
	<path style="fill:none;" d="M85,66.221V33.75C85,23.411,76.414,15,65.859,15H34.14C23.586,15,15,23.411,15,33.75v51.246
		l50.855-0.016C76.414,84.98,85,76.564,85,66.221z"/>
	<path d="M100,66.221V33.75C100,15.141,84.68,0,65.859,0H34.14C15.32,0,0,15.141,0,33.75V100l65.859-0.02
		C84.68,99.98,100,84.84,100,66.221z M85,66.221c0,10.344-8.586,18.76-19.145,18.76L15,84.996V33.75C15,23.411,23.586,15,34.14,15
		h31.719C76.414,15,85,23.411,85,33.75V66.221z"/>
</g>
</g></g><g transform="translate(80,80) scale(1.2, 1.2)"><g transform=" translate(100, 0) scale(-1,1) " style="fill: rgb(96, 187, 69);">
<path d="M100,72.779V27.195C100,12.203,87.604,0,72.37,0H27.63C12.397,0,0,12.203,0,27.195V100l72.37-0.042
	C87.604,99.958,100,87.771,100,72.779z"/>
</g></g><g transform="translate(800,80) scale(1.2, 1.2)"><g transform="" style="fill: rgb(96, 187, 69);">
<path d="M100,72.779V27.195C100,12.203,87.604,0,72.37,0H27.63C12.397,0,0,12.203,0,27.195V100l72.37-0.042
	C87.604,99.958,100,87.771,100,72.779z"/>
</g></g><g transform="translate(80,800) scale(1.2, 1.2)"><g transform=" translate(100, 0) scale(-1,1)  translate(0,100) scale(1,-1) " style="fill: rgb(96, 187, 69);">
<path d="M100,72.779V27.195C100,12.203,87.604,0,72.37,0H27.63C12.397,0,0,12.203,0,27.195V100l72.37-0.042
	C87.604,99.958,100,87.771,100,72.779z"/>
</g></g></g></svg>